<?xml version="1.0" encoding="UTF-8" standalone="no"?>
<!DOCTYPE svg PUBLIC "-//W3C//DTD SVG 1.1//EN" "http://www.w3.org/Graphics/SVG/1.1/DTD/svg11.dtd">
<!-- Created with Vectornator (http://vectornator.io/) -->
<svg height="100%" stroke-miterlimit="10" style="fill-rule:nonzero;clip-rule:evenodd;stroke-linecap:round;stroke-linejoin:round;" version="1.1" viewBox="0 0 339.96 149.16" width="100%" xml:space="preserve" xmlns="http://www.w3.org/2000/svg" xmlns:vectornator="http://vectornator.io" xmlns:xlink="http://www.w3.org/1999/xlink">
<defs/>
<g id="Layer_1" vectornator:layerName="Layer_1">
<path d="M93.25 50.53L92.84 57.819L92.63 57.819C90.49 53.81 85.78 49.44 77.17 49.44C65.81 49.44 54.97 58.74 54.97 75.41C54.97 89.04 63.66 99.46 75.95 99.46C83.63 99.46 88.95 95.77 91.71 91.17L91.92 91.17L91.92 96.691C91.92 109.35 85.16 114.251 75.95 114.251C69.8 114.251 64.68 112.371 61.44 110.291L59.21 117.131C63.16 119.721 69.7 121.111 75.64 121.111C81.88 121.111 88.85 119.72 93.65 115.34C98.46 111.02 100.71 103.93 100.71 92.49L100.71 63.92C100.71 58.03 100.91 54.08 101.12 50.53L93.25 50.53ZM91.81 78.71C91.81 80.231 91.61 81.949 91.1 83.47C89.15 89.15 84.14 92.59 78.61 92.59C68.88 92.59 63.96 84.59 63.96 74.96C63.96 63.52 70.11 56.3 78.71 56.3C85.26 56.3 89.67 60.57 91.31 65.75C91.71 66.97 91.81 68.29 91.81 69.819L91.81 78.71Z" fill="#000000" fill-rule="evenodd" opacity="1" stroke="none" vectornator:layerName="path"/>
<path d="M150.5 33.069C147.24 33.069 144.89 35.519 144.89 38.69C144.89 41.75 147.14 44.199 150.3 44.199C153.87 44.199 156.11 41.75 156.01 38.69C156.01 35.52 153.87 33.069 150.5 33.069Z" fill="#568771" fill-rule="evenodd" opacity="1" stroke="none" vectornator:layerName="path"/>
<path d="M186.74 62.24C186.04 62.49 184.66 62.899 183.02 62.899C181.18 62.899 179.67 62.429 178.48 61.299C177.43 60.289 176.79 58.669 176.79 56.779C176.8 53.159 179.29 50.508 183.36 50.508C184.76 50.508 185.86 50.818 186.38 51.068L186.01 52.348C185.36 52.059 184.55 51.828 183.32 51.828C180.37 51.828 178.44 53.668 178.44 56.708C178.44 59.788 180.3 61.608 183.12 61.608C184.15 61.608 184.85 61.458 185.21 61.278L185.21 57.658L182.75 57.658L182.75 56.397L186.74 56.397C186.74 56.397 186.74 62.24 186.74 62.24Z" fill="#666666" fill-rule="evenodd" opacity="1" stroke="none" vectornator:layerName="path"/>
<path d="M190.88 56.78C190.88 55.75 190.86 54.87 190.81 54.06L192.2 54.06L192.25 55.769L192.32 55.769C192.72 54.599 193.67 53.86 194.73 53.86C194.91 53.86 195.04 53.88 195.18 53.92L195.18 55.41C195.02 55.38 194.86 55.36 194.64 55.36C193.53 55.36 192.74 56.199 192.52 57.389C192.48 57.61 192.45 57.86 192.45 58.129L192.45 62.779L190.88 62.779L190.88 56.78Z" fill="#666666" fill-rule="evenodd" opacity="1" stroke="none" vectornator:layerName="path"/>
<path d="M203.07 58.33C201.34 58.29 199.38 58.6 199.38 60.29C199.38 61.319 200.06 61.8 200.87 61.8C202.01 61.8 202.73 61.08 202.98 60.34C203.03 60.18 203.07 60 203.07 59.84C203.07 59.84 203.07 58.33 203.07 58.33ZM203.3 62.78L203.18 61.679L203.12 61.679C202.64 62.36 201.7 62.969 200.46 62.969C198.69 62.969 197.79 61.729 197.79 60.469C197.79 58.369 199.67 57.209 203.03 57.229L203.03 57.049C203.03 56.329 202.83 55.029 201.05 55.029C200.24 55.029 199.4 55.289 198.78 55.678L198.42 54.638C199.14 54.168 200.19 53.859 201.29 53.859C203.95 53.859 204.6 55.678 204.6 57.428L204.6 60.689C204.6 61.439 204.63 62.178 204.74 62.779L203.3 62.779L203.3 62.78Z" fill="#666666" fill-rule="evenodd" opacity="1" stroke="none" vectornator:layerName="path"/>
<path d="M214.89 57.61C214.89 57.41 214.88 57.139 214.82 56.94C214.59 55.929 213.72 55.11 212.54 55.11C210.9 55.11 209.93 56.549 209.93 58.469C209.93 60.24 210.79 61.698 212.5 61.698C213.56 61.698 214.53 60.989 214.82 59.809C214.88 59.588 214.89 59.369 214.89 59.119C214.89 59.119 214.89 57.61 214.89 57.61ZM216.48 49.99L216.48 60.53C216.48 61.3 216.5 62.179 216.55 62.78L215.13 62.78L215.06 61.259L215.02 61.259C214.53 62.239 213.47 62.969 212.05 62.969C209.94 62.969 208.32 61.19 208.32 58.549C208.3 55.649 210.11 53.86 212.23 53.86C213.56 53.86 214.46 54.49 214.86 55.199L214.89 55.199L214.89 49.99L216.48 49.99Z" fill="#666666" fill-rule="evenodd" opacity="1" stroke="none" vectornator:layerName="path"/>
<path d="M221.88 58.44C221.88 60.339 222.98 61.79 224.52 61.79C226.04 61.79 227.17 60.36 227.17 58.399C227.17 56.92 226.43 55.049 224.56 55.049C222.69 55.05 221.88 56.78 221.88 58.44ZM228.79 58.35C228.79 61.57 226.56 62.97 224.45 62.97C222.09 62.97 220.27 61.25 220.27 58.491C220.27 55.57 222.18 53.861 224.6 53.861C227.1 53.86 228.79 55.68 228.79 58.35Z" fill="#666666" fill-rule="evenodd" opacity="1" stroke="none" vectornator:layerName="path"/>
<path d="M243.73 57.569C243.75 56.56 243.32 55 241.53 55C239.93 55 239.23 56.47 239.1 57.569L243.73 57.569ZM239.08 58.71C239.12 60.85 240.49 61.73 242.07 61.73C243.21 61.73 243.89 61.531 244.49 61.281L244.76 62.421C244.2 62.671 243.24 62.961 241.86 62.961C239.17 62.961 237.57 61.191 237.57 58.562C237.57 55.931 239.12 53.862 241.66 53.862C244.5 53.862 245.26 56.372 245.26 57.971C245.26 58.291 245.22 58.551 245.21 58.711L239.08 58.711L239.08 58.71Z" fill="#666666" fill-rule="evenodd" opacity="1" stroke="none" vectornator:layerName="path"/>
<path d="M249.02 56.42C249.02 55.52 249 54.78 248.95 54.061L250.35 54.061L250.44 55.5L250.48 55.5C250.91 54.67 251.92 53.86 253.36 53.86C254.57 53.86 256.44 54.58 256.44 57.569L256.44 62.78L254.85 62.78L254.85 57.75C254.85 56.35 254.33 55.18 252.84 55.18C251.79 55.18 250.98 55.92 250.71 56.8C250.64 57 250.6 57.27 250.6 57.54L250.6 62.78L249.02 62.78C249.02 62.78 249.02 56.42 249.02 56.42Z" fill="#666666" fill-rule="evenodd" opacity="1" stroke="none" vectornator:layerName="path"/>
<path d="M179.36 69.561L179.36 72.061L181.63 72.061L181.63 73.27L179.36 73.27L179.36 77.97C179.36 79.05 179.67 79.66 180.55 79.66C180.96 79.66 181.27 79.61 181.47 79.55L181.54 80.74C181.23 80.87 180.75 80.96 180.14 80.96C179.4 80.96 178.8 80.72 178.43 80.29C177.97 79.819 177.81 79.05 177.81 78.019L177.81 73.269L176.46 73.269L176.46 72.06L177.81 72.06L177.81 69.97L179.36 69.561Z" fill="#666666" fill-rule="evenodd" opacity="1" stroke="#666666" stroke-linecap="square" stroke-linejoin="round" stroke-width="0.72" vectornator:layerName="path"/>
<path d="M192.07 75.569C192.09 74.56 191.66 73 189.87 73C188.27 73 187.57 74.47 187.44 75.569L192.07 75.569ZM187.43 76.71C187.46 78.85 188.83 79.731 190.41 79.731C191.55 79.731 192.23 79.531 192.83 79.281L193.1 80.421C192.54 80.671 191.58 80.961 190.2 80.961C187.51 80.961 185.91 79.191 185.91 76.562C185.91 73.931 187.46 71.862 190 71.862C192.84 71.862 193.6 74.372 193.6 75.971C193.6 76.291 193.56 76.551 193.55 76.711L187.43 76.711L187.43 76.71Z" fill="#666666" fill-rule="evenodd" opacity="1" stroke="#666666" stroke-linecap="square" stroke-linejoin="round" stroke-width="0.72" vectornator:layerName="path"/>
<path d="M205.01 80.449C204.6 80.67 203.68 80.96 202.51 80.96C199.88 80.96 198.17 79.17 198.17 76.51C198.17 73.83 200.01 71.88 202.85 71.88C203.79 71.88 204.62 72.12 205.05 72.33L204.69 73.56C204.31 73.339 203.72 73.139 202.85 73.139C200.85 73.139 199.77 74.619 199.77 76.44C199.77 78.449 201.07 79.699 202.8 79.699C203.7 79.699 204.29 79.46 204.74 79.26L205.01 80.449Z" fill="#666666" fill-rule="evenodd" opacity="1" stroke="#666666" stroke-linecap="square" stroke-linejoin="round" stroke-width="0.72" vectornator:layerName="path"/>
<path d="M210.1 74.42C210.1 73.52 210.09 72.78 210.03 72.061L211.44 72.061L211.53 73.5L211.56 73.5C212 72.67 213 71.86 214.44 71.86C215.65 71.86 217.52 72.58 217.52 75.569L217.52 80.78L215.94 80.78L215.94 75.75C215.94 74.35 215.42 73.18 213.92 73.18C212.88 73.18 212.07 73.92 211.8 74.8C211.73 75 211.69 75.27 211.69 75.54L211.69 80.78L210.1 80.78C210.1 80.78 210.1 74.42 210.1 74.42Z" fill="#666666" fill-rule="evenodd" opacity="1" stroke="#666666" stroke-linecap="square" stroke-linejoin="round" stroke-width="0.72" vectornator:layerName="path"/>
<path d="M224.31 76.44C224.31 78.339 225.41 79.79 226.95 79.79C228.47 79.79 229.6 78.36 229.6 76.399C229.6 74.92 228.86 73.049 226.99 73.049C225.12 73.05 224.31 74.78 224.31 76.44ZM231.22 76.35C231.22 79.57 228.99 80.97 226.88 80.97C224.52 80.97 222.7 79.25 222.7 76.491C222.7 73.57 224.61 71.861 227.03 71.861C229.53 71.86 231.22 73.68 231.22 76.35Z" fill="#666666" fill-rule="evenodd" opacity="1" stroke="#666666" stroke-linecap="square" stroke-linejoin="round" stroke-width="0.72" vectornator:layerName="path"/>
<path d="M236.46 67.99L238.04 67.99L238.04 67.99L238.04 80.78L238.04 80.78L236.46 80.78L236.46 80.78L236.46 67.99L236.46 67.99Z" fill="#666666" fill-rule="evenodd" opacity="1" stroke="#666666" stroke-linecap="square" stroke-linejoin="round" stroke-width="0.72" vectornator:layerName="rect"/>
<path d="M244.92 76.44C244.92 78.339 246.01 79.79 247.56 79.79C249.08 79.79 250.21 78.36 250.21 76.399C250.21 74.92 249.47 73.049 247.6 73.049C245.73 73.05 244.92 74.78 244.92 76.44ZM251.83 76.35C251.83 79.57 249.6 80.97 247.49 80.97C245.13 80.97 243.31 79.25 243.31 76.491C243.31 73.57 245.22 71.861 247.64 71.861C250.14 71.86 251.83 73.68 251.83 76.35Z" fill="#666666" fill-rule="evenodd" opacity="1" stroke="#666666" stroke-linecap="square" stroke-linejoin="round" stroke-width="0.72" vectornator:layerName="path"/>
<path d="M262.94 75.5C262.94 75.23 262.92 75 262.85 74.78C262.56 73.86 261.78 73.11 260.63 73.11C259.12 73.11 258.04 74.38 258.04 76.399C258.04 78.11 258.9 79.53 260.61 79.53C261.59 79.53 262.47 78.92 262.81 77.91C262.9 77.639 262.94 77.34 262.94 77.069L262.94 75.5ZM264.57 72.061C264.54 72.691 264.5 73.39 264.5 74.46L264.5 79.52C264.5 81.51 264.11 82.741 263.26 83.491C262.41 84.291 261.19 84.541 260.09 84.541C259.05 84.541 257.89 84.291 257.19 83.82L257.59 82.611C258.16 82.97 259.06 83.3 260.15 83.3C261.77 83.3 262.95 82.449 262.95 80.25L262.95 79.28L262.92 79.28C262.43 80.09 261.5 80.74 260.15 80.74C257.98 80.74 256.44 78.899 256.44 76.49C256.44 73.54 258.36 71.86 260.36 71.86C261.87 71.86 262.7 72.66 263.08 73.38L263.12 73.38L263.19 72.061C263.19 72.061 264.57 72.061 264.57 72.061Z" fill="#666666" fill-rule="evenodd" opacity="1" stroke="#666666" stroke-linecap="square" stroke-linejoin="round" stroke-width="0.72" vectornator:layerName="path"/>
<path d="M270.26 80.78L270.26 72.06L271.84 72.06L271.84 80.78L270.26 80.78ZM273.48 68.3L271.29 70.87L270.15 70.87L271.74 68.3L273.48 68.3Z" fill="#666666" fill-rule="evenodd" opacity="1" stroke="#666666" stroke-linecap="square" stroke-linejoin="round" stroke-width="0.72" vectornator:layerName="path"/>
<path d="M282.3 76.33C280.57 76.29 278.611 76.6 278.611 78.29C278.611 79.319 279.3 79.8 280.111 79.8C281.241 79.8 281.961 79.08 282.211 78.34C282.271 78.18 282.301 78 282.301 77.84L282.301 76.33L282.3 76.33ZM282.54 80.78L282.409 79.679L282.36 79.679C281.87 80.36 280.94 80.969 279.69 80.969C277.929 80.969 277.03 79.73 277.03 78.469C277.03 76.369 278.899 75.209 282.269 75.23L282.269 75.05C282.269 74.33 282.069 73.03 280.29 73.03C279.479 73.03 278.63 73.29 278.019 73.679L277.659 72.639C278.38 72.169 279.42 71.86 280.519 71.86C283.19 71.86 283.83 73.679 283.83 75.429L283.83 78.69C283.83 79.44 283.87 80.179 283.979 80.78L282.54 80.78Z" fill="#666666" fill-rule="evenodd" opacity="1" stroke="#666666" stroke-linecap="square" stroke-linejoin="round" stroke-width="0.72" vectornator:layerName="path"/>
<path d="M289.409 79.16C289.88 79.46 290.71 79.79 291.5 79.79C292.649 79.79 293.19 79.21 293.19 78.49C293.19 77.73 292.74 77.319 291.569 76.889C290.009 76.329 289.269 75.459 289.269 74.419C289.269 73.019 290.399 71.859 292.269 71.859C293.159 71.859 293.929 72.119 294.419 72.398L294.019 73.559C293.679 73.338 293.049 73.048 292.24 73.048C291.3 73.048 290.78 73.588 290.78 74.238C290.78 74.958 291.3 75.278 292.44 75.717C293.949 76.287 294.719 77.047 294.719 78.337C294.719 79.877 293.53 80.957 291.459 80.957C290.509 80.957 289.629 80.717 289.019 80.357L289.409 79.16Z" fill="#666666" fill-rule="evenodd" opacity="1" stroke="#666666" stroke-linecap="square" stroke-linejoin="round" stroke-width="0.72" vectornator:layerName="path"/>
<path d="M177.45 99.78L177.45 91.06L179.04 91.06L179.04 99.78L177.45 99.78ZM179.22 88.61C179.24 89.149 178.84 89.589 178.21 89.589C177.65 89.589 177.25 89.149 177.25 88.61C177.25 88.049 177.67 87.62 178.24 87.62C178.84 87.62 179.22 88.05 179.22 88.61Z" fill="#666666" fill-rule="evenodd" opacity="1" stroke="#666666" stroke-linecap="square" stroke-linejoin="round" stroke-width="0.72" vectornator:layerName="path"/>
<path d="M184.63 93.42C184.63 92.52 184.62 91.78 184.56 91.061L185.97 91.061L186.06 92.5L186.09 92.5C186.53 91.67 187.53 90.86 188.97 90.86C190.18 90.86 192.05 91.58 192.05 94.569L192.05 99.78L190.47 99.78L190.47 94.75C190.47 93.35 189.95 92.18 188.45 92.18C187.41 92.18 186.6 92.92 186.33 93.8C186.26 94 186.22 94.27 186.22 94.54L186.22 99.78L184.63 99.78C184.63 99.78 184.63 93.42 184.63 93.42Z" fill="#666666" fill-rule="evenodd" opacity="1" stroke="#666666" stroke-linecap="square" stroke-linejoin="round" stroke-width="0.72" vectornator:layerName="path"/>
<path d="M199.43 88.561L199.43 91.061L201.7 91.061L201.7 92.27L199.43 92.27L199.43 96.97C199.43 98.05 199.74 98.66 200.62 98.66C201.03 98.66 201.34 98.61 201.54 98.55L201.61 99.74C201.3 99.87 200.82 99.96 200.21 99.96C199.47 99.96 198.87 99.72 198.49 99.29C198.04 98.819 197.88 98.05 197.88 97.019L197.88 92.269L196.53 92.269L196.53 91.06L197.88 91.06L197.88 88.97L199.43 88.561Z" fill="#666666" fill-rule="evenodd" opacity="1" stroke="#666666" stroke-linecap="square" stroke-linejoin="round" stroke-width="0.72" vectornator:layerName="path"/>
<path d="M211.87 94.569C211.89 93.56 211.46 92 209.67 92C208.07 92 207.37 93.47 207.24 94.569L211.87 94.569ZM207.22 95.71C207.26 97.85 208.63 98.731 210.21 98.731C211.35 98.731 212.03 98.531 212.63 98.281L212.9 99.421C212.34 99.671 211.38 99.961 210 99.961C207.31 99.961 205.71 98.191 205.71 95.562C205.71 92.931 207.26 90.862 209.8 90.862C212.64 90.862 213.4 93.372 213.4 94.971C213.4 95.291 213.36 95.551 213.35 95.711L207.22 95.711L207.22 95.71Z" fill="#666666" fill-rule="evenodd" opacity="1" stroke="#666666" stroke-linecap="square" stroke-linejoin="round" stroke-width="0.72" vectornator:layerName="path"/>
<path d="M218.33 93.78C218.33 92.75 218.31 91.87 218.26 91.06L219.64 91.06L219.7 92.769L219.77 92.769C220.17 91.599 221.12 90.86 222.18 90.86C222.36 90.86 222.49 90.88 222.63 90.92L222.63 92.41C222.47 92.38 222.31 92.36 222.09 92.36C220.98 92.36 220.18 93.199 219.97 94.389C219.93 94.61 219.9 94.86 219.9 95.129L219.9 99.779L218.33 99.779L218.33 93.78Z" fill="#666666" fill-rule="evenodd" opacity="1" stroke="#666666" stroke-linecap="square" stroke-linejoin="round" stroke-width="0.72" vectornator:layerName="path"/>
<path d="M231.69 95.33C229.96 95.29 228 95.6 228 97.29C228 98.319 228.68 98.8 229.49 98.8C230.63 98.8 231.35 98.08 231.6 97.34C231.65 97.18 231.69 97 231.69 96.84C231.69 96.84 231.69 95.33 231.69 95.33ZM231.92 99.78L231.8 98.679L231.74 98.679C231.26 99.36 230.32 99.969 229.08 99.969C227.31 99.969 226.41 98.73 226.41 97.469C226.41 95.369 228.28 94.209 231.65 94.23L231.65 94.05C231.65 93.33 231.45 92.03 229.67 92.03C228.86 92.03 228.01 92.29 227.4 92.679L227.04 91.639C227.76 91.169 228.81 90.86 229.91 90.86C232.57 90.86 233.22 92.679 233.22 94.429L233.22 97.69C233.22 98.44 233.25 99.179 233.36 99.78L231.92 99.78Z" fill="#666666" fill-rule="evenodd" opacity="1" stroke="#666666" stroke-linecap="square" stroke-linejoin="round" stroke-width="0.72" vectornator:layerName="path"/>
<path d="M244.95 99.449C244.54 99.67 243.62 99.96 242.45 99.96C239.82 99.96 238.11 98.17 238.11 95.51C238.11 92.83 239.95 90.88 242.79 90.88C243.73 90.88 244.56 91.12 244.99 91.33L244.63 92.56C244.25 92.339 243.66 92.139 242.79 92.139C240.8 92.139 239.71 93.619 239.71 95.44C239.71 97.449 241.01 98.699 242.74 98.699C243.64 98.699 244.23 98.46 244.68 98.26L244.95 99.449Z" fill="#666666" fill-rule="evenodd" opacity="1" stroke="#666666" stroke-linecap="square" stroke-linejoin="round" stroke-width="0.72" vectornator:layerName="path"/>
<path d="M251.92 88.561L251.92 91.061L254.19 91.061L254.19 92.27L251.92 92.27L251.92 96.97C251.92 98.05 252.22 98.66 253.11 98.66C253.52 98.66 253.83 98.61 254.03 98.55L254.1 99.74C253.79 99.87 253.3 99.96 252.69 99.96C251.95 99.96 251.36 99.72 250.98 99.29C250.53 98.819 250.37 98.05 250.37 97.019L250.37 92.269L249.02 92.269L249.02 91.06L250.37 91.06L250.37 88.97L251.92 88.561Z" fill="#666666" fill-rule="evenodd" opacity="1" stroke="#666666" stroke-linecap="square" stroke-linejoin="round" stroke-width="0.72" vectornator:layerName="path"/>
<path d="M258.94 99.78L258.94 91.06L260.52 91.06L260.52 99.78L258.94 99.78ZM260.7 88.61C260.72 89.149 260.32 89.589 259.69 89.589C259.14 89.589 258.74 89.149 258.74 88.61C258.74 88.049 259.15 87.62 259.73 87.62C260.32 87.62 260.7 88.05 260.7 88.61Z" fill="#666666" fill-rule="evenodd" opacity="1" stroke="#666666" stroke-linecap="square" stroke-linejoin="round" stroke-width="0.72" vectornator:layerName="path"/>
<path d="M266.73 91.061L268.44 95.96C268.73 96.75 268.96 97.47 269.14 98.19L269.2 98.19C269.4 97.469 269.65 96.75 269.94 95.96L271.63 91.061L273.29 91.061L269.87 99.781L268.35 99.781L265.04 91.061L266.73 91.061Z" fill="#666666" fill-rule="evenodd" opacity="1" stroke="#666666" stroke-linecap="square" stroke-linejoin="round" stroke-width="0.72" vectornator:layerName="path"/>
<path d="M282.27 95.33C280.541 95.29 278.581 95.6 278.581 97.29C278.581 98.319 279.261 98.8 280.07 98.8C281.2 98.8 281.921 98.08 282.18 97.34C282.23 97.18 282.27 97 282.27 96.84C282.27 96.84 282.27 95.33 282.27 95.33ZM282.5 99.78L282.37 98.679L282.319 98.679C281.83 99.36 280.899 99.969 279.659 99.969C277.889 99.969 276.99 98.73 276.99 97.469C276.99 95.369 278.86 94.209 282.229 94.23L282.229 94.05C282.229 93.33 282.03 92.03 280.25 92.03C279.44 92.03 278.59 92.29 277.979 92.679L277.62 91.639C278.34 91.169 279.39 90.86 280.479 90.86C283.149 90.86 283.799 92.679 283.799 94.429L283.799 97.69C283.799 98.44 283.829 99.179 283.94 99.78L282.5 99.78Z" fill="#666666" fill-rule="evenodd" opacity="1" stroke="#666666" stroke-linecap="square" stroke-linejoin="round" stroke-width="0.72" vectornator:layerName="path"/>
<path d="M289.11 98.16C289.569 98.46 290.399 98.79 291.19 98.79C292.349 98.79 292.889 98.21 292.889 97.49C292.889 96.73 292.44 96.319 291.269 95.889C289.699 95.329 288.959 94.459 288.959 93.419C288.959 92.019 290.099 90.859 291.969 90.859C292.849 90.859 293.619 91.119 294.11 91.398L293.71 92.559C293.37 92.338 292.74 92.048 291.93 92.048C291 92.048 290.47 92.588 290.47 93.238C290.47 93.958 291 94.278 292.13 94.717C293.64 95.287 294.42 96.047 294.42 97.337C294.42 98.877 293.23 99.957 291.159 99.957C290.199 99.957 289.319 99.717 288.71 99.357L289.11 98.16Z" fill="#666666" fill-rule="evenodd" opacity="1" stroke="#666666" stroke-linecap="square" stroke-linejoin="round" stroke-width="0.72" vectornator:layerName="path"/>
<path d="M115.25 33.49L115.25 50.479L103.49 50.479L103.49 57.44L115.25 57.44L115.25 84.55C115.25 90.4 116.19 94.699 118.81 97.18C121 99.46 124.36 100.7 128.55 100.7C132.03 100.7 134.79 100.231 136.52 99.561L136.11 93.231C134.99 93.531 133.22 93.84 130.87 93.84C125.86 93.84 124.13 90.35 124.13 84.191L124.13 57.44L146.93 57.44L146.93 99.68L157.01 99.68L157.01 56.09C156.77 55.699 152.12 50.48 152.12 50.48L124.13 50.48L124.13 31.13L115.25 33.49Z" fill="#2c4740" fill-rule="evenodd" opacity="1" stroke="none" vectornator:layerName="path"/>
<path d="M146.93 55.52C146.93 52.741 149.19 50.48 151.97 50.48C154.75 50.48 157.01 52.741 157.01 55.52C157.01 58.3 154.75 60.561 151.97 60.561C149.19 60.561 146.93 58.3 146.93 55.52Z" fill="#568771" fill-rule="evenodd" opacity="1" stroke="none" vectornator:layerName="path"/>
</g>
</svg>
